<?xml version="1.0" encoding="utf-8"?>
<!-- Generator: Adobe Illustrator 27.5.0, SVG Export Plug-In . SVG Version: 6.00 Build 0)  -->
<svg version="1.1" id="Layer_1" xmlns="http://www.w3.org/2000/svg" xmlns:xlink="http://www.w3.org/1999/xlink" x="0px" y="0px"
	 viewBox="0 0 548 336" style="enable-background:new 0 0 548 336;" xml:space="preserve">
<style type="text/css">
	.st4{fill:#F6B610;}
</style>
<g>
	<path class="st4" d="M282,336.27l262.87-0.03l-9.04-46.5l-9-36l-27-20c0,0-44-27-46-28s-17-17-17-17l4-11l2-30l-5-31l-10-31l-15-14
		l-26-3l-25-4l-21,7l-18,10l5,13l-11,13l-12,19l1,14l-13,2l10,31l1,13l9,7l4,13l2,18l5,10l-17,13l-18,55l-6.67,33H282V336.27z"/>
	<path class="st4" d="M224,335.74h-0.16v-25l-16-60l-18-36l33-4l13-10l2-22l10-5l17.6-5.47l1.4-8.53v-26l4-11l4-19.53l4-21.47
		l-4.5-17.06V43.66l-19-21.43l-38-17l-41.03-5l-5.97,10l-22,5l-22,20l-15,26l-10.92,47.81v20.19H87.34l-20,28l-45,67
		C22.34,224.24,2,254,0,260l1.34,76.3L224,336.27V335.74z"/>
</g>
</svg>
