<?xml version="1.0" encoding="utf-8"?>
<!-- Generator: Adobe Illustrator 27.5.0, SVG Export Plug-In . SVG Version: 6.00 Build 0)  -->
<svg version="1.1" id="Layer_1" xmlns="http://www.w3.org/2000/svg" xmlns:xlink="http://www.w3.org/1999/xlink" x="0px" y="0px"
	 viewBox="0 0 225 233" style="enable-background:new 0 0 225 233;" xml:space="preserve">
<style type="text/css">
	.st0{fill:#F6B610;}
</style>
<path class="st0" d="M8.83,108.09c1-2,8-34,8-34l11-4l21-7l-2-5l-2-13l8-25l12-6l16,5l6,6l3,20l-6,20l11,9l10,2l24-12l4-11V36.13
	V22.12l8-14.04h12.27l14.73,2l8,14l-4,17l-1,8l5,9l22,10l9,4l6,42l-6,53l-6,10l5,45l-9,9l-6.29,1.91H13.08l-4.24-32.37
	c0,0-3.16-62.04-2.58-62.79S8.83,108.09,8.83,108.09z"/>
</svg>
