<?xml version="1.0" encoding="UTF-8"?>
<svg id="Layer_1" data-name="Layer 1" xmlns="http://www.w3.org/2000/svg" viewBox="0 0 74.73 50.38">
  <defs>
    <style>
      .cls-1 {
        fill: #fff;
      }
    </style>
  </defs>
  <g id="Layer_1-2" data-name="Layer 1">
    <g>
      <path class="cls-1" d="m11.43,4.14C15.89,1.37,21.16-.14,26.41.01c3.85-.09,7.72.59,11.31,1.99,3.9,1.51,7.43,4.13,9.68,7.69.15.34.61.6.91.28,2.93-2.65,6.48-4.65,10.35-5.51,4.91-1.16,10.21-.31,14.6,2.14.52.33,1.19.52,1.45,1.12-.13.39-.45.67-.88.57-5.98-.62-12.15.41-17.55,3.09-2.99,1.46-5.74,3.39-8.18,5.63-.21.25-.52.32-.83.3-2.68-3.96-6.73-6.91-11.22-8.49-3.61-1.3-7.59-1.52-11.33-.68-5.23,1.1-10.21,4.02-13.19,8.53-2.91,4.47-3.87,10.03-3.17,15.28.66,4.97,2.67,9.61,3.77,14.48.09.55.22,1.23-.2,1.69-.48.39-1.14.18-1.63-.07-1.13-.62-2.02-1.57-2.96-2.43C2.96,41.31.66,35.25.1,29.21c-.2-3.67-.21-7.41.81-10.97,1.55-5.81,5.42-10.94,10.52-14.1Z"/>
      <path class="cls-1" d="m23.92,19.07c2.81-1.17,5.88-1.6,8.91-1.67,2.97-.1,6.18.49,8.42,2.58,2.28,2.09,3.16,5.26,3.34,8.26.22,3.51-.38,7.29-2.61,10.12-1.61,2.06-4.15,3.24-6.73,3.4-1.96.12-3.94-.04-5.86-.47-.02,2.82,0,5.63-.02,8.44.03.27-.1.69-.45.64-1.88.01-3.76.02-5.64,0-.58.04-.53-.65-.54-1.03,0-9.6,0-19.2,0-28.8-.07-.73.56-1.22,1.17-1.45h0Zm5.45,4.56c.01,3.97,0,7.95,0,11.92,1.27.31,2.57.52,3.88.45,1.36-.04,2.74-.69,3.44-1.89,1.06-1.74,1.11-3.88,1-5.85-.12-1.66-.61-3.57-2.17-4.45-1.89-1-4.16-.69-6.16-.19h0Z"/>
      <path class="cls-1" d="m48.4,19.15c2.27-1,4.74-1.45,7.2-1.65,3.19-.27,6.67-.14,9.38,1.75,2.41,1.64,3.67,4.49,4.07,7.29.52,3.66.21,7.63-1.76,10.85-1.31,2.17-3.57,3.73-6.07,4.18-2.39.43-4.85.19-7.21-.28v8.23c0,.31,0,.87-.45.83-1.88.01-3.75.02-5.63,0-.49.06-.56-.48-.54-.83,0-9.67,0-19.33,0-29-.07-.66.45-1.16,1.02-1.38h0Zm5.6,4.5c.01,3.97,0,7.94,0,11.91,1.27.31,2.57.51,3.88.46,1.36-.04,2.74-.69,3.45-1.89,1.07-1.77,1.11-3.94.99-5.94-.12-1.68-.67-3.61-2.29-4.43-1.88-.92-4.09-.62-6.04-.12Z"/>
    </g>
  </g>
</svg>