
  <svg xmlns="http://www.w3.org/2000/svg" viewBox="0 0 239.51 112.08">
    <defs>
   <style>
  .cls-1 {
    fill: #fff;
  }
</style>
    </defs>
    <g>
      <path class="cls-1" d="m34.46,29.43v-14.02h10.58v2.74h-7.51v2.85h6.61v2.74h-6.61v2.95h7.61v2.74h-10.68Z"/>
      <path class="cls-1" d="m47.88,29.43v-14.02h3.08v11.22h6.99v2.8h-10.08Z"/>
      <path class="cls-1" d="m72.86,29.67c-4.13,0-7.19-3.19-7.19-7.21v-.04c0-3.99,3-7.25,7.31-7.25,2.64,0,4.23.88,5.53,2.16l-1.96,2.26c-1.08-.98-2.18-1.58-3.59-1.58-2.36,0-4.07,1.96-4.07,4.37v.04c0,2.4,1.66,4.41,4.07,4.41,1.6,0,2.58-.64,3.69-1.64l1.96,1.98c-1.44,1.54-3.05,2.5-5.75,2.5Z"/>
      <path class="cls-1" d="m91.51,29.43l-1.28-3.15h-5.93l-1.28,3.15h-3.15l6.01-14.12h2.85l6.01,14.12h-3.23Zm-4.25-10.42l-1.86,4.55h3.73l-1.86-4.55Z"/>
      <path class="cls-1" d="m107.85,29.43v-9.16l-3.95,5.99h-.08l-3.91-5.93v9.1h-3.02v-14.02h3.33l3.69,5.93,3.69-5.93h3.33v14.02h-3.06Z"/>
      <path class="cls-1" d="m120.95,29.43h-6.67v-14.02h6.51c2.86,0,4.63,1.42,4.63,3.63v.04c0,1.58-.84,2.46-1.84,3.03,1.62.62,2.62,1.56,2.62,3.45v.04c0,2.56-2.08,3.85-5.25,3.85Zm1.4-9.88c0-.92-.72-1.44-2.02-1.44h-3.05v2.97h2.85c1.36,0,2.22-.44,2.22-1.48v-.04Zm.78,5.61c0-.94-.7-1.52-2.28-1.52h-3.57v3.09h3.67c1.36,0,2.18-.48,2.18-1.52v-.04Z"/>
      <path class="cls-1" d="m128.88,29.43v-14.02h3.09v14.02h-3.09Z"/>
      <path class="cls-1" d="m142.28,29.67c-4.33,0-7.43-3.23-7.43-7.21v-.04c0-3.99,3.15-7.25,7.47-7.25s7.43,3.23,7.43,7.21v.04c0,3.99-3.15,7.25-7.47,7.25Zm4.25-7.25c0-2.4-1.76-4.41-4.25-4.41s-4.21,1.96-4.21,4.37v.04c0,2.4,1.76,4.41,4.25,4.41s4.21-1.96,4.21-4.37v-.04Z"/>
      <path class="cls-1" d="m171.02,29.85l-1.54-1.38c-1.18.76-2.6,1.2-4.17,1.2-4.33,0-7.43-3.23-7.43-7.21v-.04c0-3.99,3.15-7.25,7.47-7.25s7.43,3.23,7.43,7.21v.04c0,1.46-.44,2.87-1.24,4.03l1.44,1.22-1.96,2.18Zm-1.46-7.43c0-2.4-1.76-4.41-4.25-4.41s-4.21,1.96-4.21,4.37v.04c0,2.4,1.76,4.41,4.25,4.41.68,0,1.3-.14,1.84-.38l-2.28-1.94,1.96-2.2,2.3,2.08c.26-.58.38-1.22.38-1.92v-.04Z"/>
      <path class="cls-1" d="m181.38,29.65c-3.77,0-6.07-2.1-6.07-6.23v-8.01h3.08v7.93c0,2.28,1.14,3.47,3.03,3.47s3.03-1.14,3.03-3.37v-8.03h3.08v7.91c0,4.25-2.38,6.33-6.15,6.33Z"/>
      <path class="cls-1" d="m190.67,29.43v-14.02h10.58v2.74h-7.51v2.85h6.61v2.74h-6.61v2.95h7.61v2.74h-10.68Z"/>
    </g>
    <g>
      <path class="cls-1" d="m77.74,93.33c-.38-.07-1-.24-1.52-.29-2.47-.32-4.58-2.18-6.25-5.5-.81-1.52-1-2.14-1.89-6.71-1.13-5.84-1.13-6.21-.15-16.91.65-7.57.92-11.42.78-11.76-.21-.32-1.62,2.94-2.36,5.5-.87,3.02-1.5,6.2-2.43,12.67-1.38,9.03-1.9,11.61-2.85,13.11-.38.66-1.27.98-2,.61-.32-.16-.7-.23-.91-.19-.7.14-2.73-1.29-3.46-2.39-1.12-1.61-2.02-3.99-2.79-7.2-.88-3.77-1.17-6.78-1.2-13.71-.03-7.29-.1-11.81-.32-13.66,0-.8-.12-1.73-.1-2.02-.02-1.6-1.4,1.07-2.39,4.62-2.51,8.52-3.24,19.76-2.63,40.59.19,6.24.11,7.72-.38,8.18-.42.45-1.07.5-1.59.09-.17-.11-.69-.16-1.11-.08-1.76.34-5.46-3.32-7.56-7.36-1.88-3.65-3.78-10.07-4.55-15.18-1.43-10.02-1.13-22.71.69-30.29.79-3.08,1.89-4.16,3.09-2.87.28.31.62.54.74.44.2-.11.35-.07.39.14s.12.27.32.16c.52-.32,1.57.57,1.9,1.53.36,1.1.57,4.42.6,8.72.01,7.59.09,9.47.25,12.58.29,6.37.46,8.01,1.62,13.99,1.18,6.05,2.19,10.16,2.48,9.74.1-.24.17-4.41.13-10.61-.03-8.03.15-17.62.36-21.46.7-11.45,2.57-18.32,5.24-19.64,1.07-.5,1.83-.36,3.48.64.67.45,1.39.75,1.6.71.14-.03.95.4,1.72.98,2.13,1.56,3.18,3.98,3.55,8.51.36,3.73.58,11.64.52,17.71-.06,4.98.14,11.22.51,12.75l.14.7.17-.62c.56-1.64,1.37-5.74,2.32-12.13,2.36-15.28,3.58-19.9,5.46-21.14,1.03-.71,1.47-.72,2.71.06.66.38,1.47.81,1.92.87,1.32.4,2.65,1.6,3.19,2.88,1.18,2.69,1.35,5.8,1.08,16.44-.49,17.4-.45,17.24.42,21.31.84,3.56.94,3.69,2.5,2.36,1.83-1.45,3.85-4.62,4.54-7.09.37-1.09,1.07-3.13,1.57-4.32,1-2.38,1.61-4.48,2.37-8.49.26-1.29.52-2.22.54-2.08.04.21-.09,1.04-.23,1.8-.2.84-.28,1.59-.21,1.57.01.07.24-.63.43-1.54.33-1.67.55-2.08,1.36-2.75q.38-.29.17.11c-.17.25-.2.48-.12.53s.12.27.01.44c-.1.24-.09.31.2.25.14-.03.24-.27.13-.46s-.03-.51.09-.67c.78-.88.61,2.36-.16,6.31-1.04,4.8-3.76,11.46-6.77,16.28-1.56,2.49-3.72,3.79-5.36,3.23Zm-47.55-30.55c-.1-.13-.17-.11-.11.17.05.28.15.41.2.25.06-.08.03-.23-.08-.42Zm0,1.17c-.1-.13-.16-.04-.11.17.05.28.15.41.21.33.06-.08.02-.3-.09-.49Zm0,1.17c-.1-.13-.14.03-.09.31.07.35.17.48.2.25.04-.15,0-.37-.11-.56Zm.06-3.08c.06-.08.02-.29-.08-.42s-.1-.13-.04.15c-.03.22.07.35.12.27Zm0-1.17c.13-.1.09-.31-.01-.44-.11-.2-.17-.11-.11.17.04.21.07.35.12.27Zm-.06,5.71c-.03-.14-.08-.06-.02.29.05.28.15.41.12.27.04-.15-.01-.44-.11-.56Zm.39-12.63c.06-.08.03-.22-.08-.42q-.1-.13-.11.17c.05.28.15.41.2.25Zm.02,17.01c-.1-.13-.17-.11-.11.17.05.28.15.41.2.25.06-.08.03-.22-.08-.42Zm.12,1.73c-.11-.2-.16-.04-.09.31.08.42.18.55.22.39.04-.15-.01-.44-.14-.7Zm3.02,5.4c-.72-4.46-1.09-7.09-1.2-9.55-.31-8.34-.12-14.14.96-23.99q0-.37-.14.03c-.29.79-.92,6.17-1.11,10.07-.56,10.62-.04,19.35,1.75,26.31l.78,3.28-1.05-6.15Zm.35-30.88c.09-1.4.21-2.67.18-2.81-.08-.42-.44.01-.47.6-.02.29-.08,1.48-.21,2.67-.58,6.03-.83,14.91-.46,20.53.28,5.57,1.89,14.6,3.47,18.97.66,1.92.46.86-.66-3.38-2.49-9.81-3.17-22.31-1.85-36.58Zm.38,12.12c.06-.08.03-.22-.08-.42-.1-.13-.17-.11-.11.17.05.28.15.41.2.25Zm-.05,1.98c-.11-.2-.17-.11-.13.1.05.28.08.42.14.34.06-.08.09-.31-.01-.44Zm-.06,1.18c-.11-.2-.08-.06-.02.3.05.28.08.42.12.27.03-.22-.01-.44-.11-.56Zm.02,1.24c-.11-.2-.08-.06-.02.29.08.42.11.56.15.41.04-.15-.02-.51-.14-.7Zm.06,1.45c-.11-.2-.15-.04-.07.38.1.49.19.62.22.39s-.04-.58-.15-.77Zm-.05-7c.07.35.17-.98.37-6.72.14-3.02.24-5.52.14-5.65-.12-.27-.71,11.75-.52,12.37Zm-.02,8.91c.01.44.08,1.15.17,1.65l.18.91v-1.1c-.03-.58-.1-1.29-.15-1.57-.11-.56-.1-.49-.2.11Zm.31,3.08c-.05-.28-.08-.06.01.44s.14.7.17.48-.05-.65-.18-.92Zm.12,1.73c-.11-.2-.08-.06-.09.31.08.42.18.55.22.39s-.01-.44-.14-.7Zm.61,4.26c-.1-.13-.14.03-.09.31.07.35.15.41.2.25.04-.15-.01-.44-.11-.56Zm1.7-8.14c-.18-2.45-.29-7.9-.26-12.22-.02-4.23-.06-7.8-.08-7.94-.11-.2-.28,12.83-.16,16.46.12,4.36.38,7.59.97,10.98l.54,3.54-.4-3.21c-.2-1.79-.5-5.23-.6-7.62Zm6.67,19.29c-.03-.14-.17-.11-.22-.03-.13.1-.24.27-.21.41s.17.11.29.02c.06-.08.17-.25.14-.39Zm-.2-15.29c-.04-.21-.1-.13-.18.18-.09.67-.02,1.03.11.56.1-.24.12-.53.07-.74Zm-.13,13.61c.07.35.18.55.22.4.04-.16-.03-.51-.14-.7-.11-.2-.16-.04-.09.31Zm.17-4.41c.06-.08.04-.52.02-1.03-.05-.65-.08-.79-.17-.48-.12.53-.02,1.76.15,1.5Zm-.08-3.05c-.11-.2-.1-.13-.11.17.04.21.14.34.2.25.06-.08.02-.29-.08-.42Zm.39-2.85c-.12-.27-.38-.44-.45-.42-.14.03-.02.29.18.55.4.58.6.47.27-.12Zm-.37,8.98c-.11-.2-.17-.11-.11.17.04.21.14.34.2.25.06-.08.01-.3-.08-.42Zm-.05,8.77q.1.49.18-.18c0-.37-.02-.87-.08-1.15q-.07-.35-.11.17c-.09.31-.06.81,0,1.17Zm.13-19.23c.06-.08.02-.29-.08-.42s-.1-.13-.11.17c.05.28.14.34.2.25Zm-.15,16.89c.05.28.15.41.2.25.03-.22-.01-.44-.11-.56-.11-.2-.16-.04-.09.31Zm.12-13.31c.06-.08.09-.31-.01-.44-.11-.2-.17-.11-.11.17.04.21.07.35.13.27Zm-.02,5.55h-.07c-.04-.2-.1-.11-.02.31.07.35.11.56.15.41.03-.22-.03-.51-.07-.72Zm.03-.59c.13-.1.09-.31-.03-.51-.1-.13-.15-.04-.11.17.05.28.08.42.14.34Zm.23-14.21q-.24-.46-.29-.02c-.02.29-.1.6-.07.74.1.13.08.06.13-.1.04-.15.17-.25.25-.2.14-.03.11-.17-.01-.44Zm-.33,21.24c.07.35.11.56.15.41.03-.22-.03-.51-.14-.7-.04-.21-.1-.13-.02.3Zm.12-24.56c-.13.46-.04,1.69.15,1.5.06-.08.03-.59,0-1.1-.05-.65-.08-.79-.15-.41Zm.41-5.04c-.08-.42-.37,2.63-.33,3.57.02.51.14-.03.2-1.21.13-1.19.15-2.22.13-2.36Zm-.07,18.05c-.11-.2-.17-.11-.13.1.05.28.15.41.21.32s.02-.3-.08-.42Zm.07,16.12c-.07-.35-.05-.28-.11.17-.13.83,0,1.46.15.77.03-.23.02-.66-.04-.94Zm-.03-12.19c-.1-.13-.15-.04-.11.17.05.28.15.41.21.32.06-.08.01-.29-.1-.49Zm.03,2.4c-.11-.2-.17-.11-.11.17.04.21.07.35.13.27.13-.1.09-.31-.01-.44Zm-.02-14.38c-.11-.2-.1-.13-.11.17.04.21.14.34.2.25s.02-.29-.08-.42Zm.02,21.9c-.1-.13-.17-.11-.11.17.04.21.14.34.2.25s.02-.29-.08-.42Zm0,1.17c-.1-.13-.17-.11-.11.17s.15.41.2.25c.06-.08.03-.22-.08-.42Zm.02-13.44c-.1-.13-.17-.11-.11.17.04.21.07.35.13.27.06-.08.09-.31-.01-.44Zm.02,8.76c-.11-.2-.17-.11-.11.17.04.21.14.34.2.25s.02-.29-.08-.42Zm.02,2.33c-.11-.2-.17-.11-.11.17-.03.22.07.35.12.27.06-.08.02-.3-.01-.44Zm3.66-46.93c-.91,1.71-2.06,5.95-2.84,11.29-.17.98-.28,1.59-.32,1.38-.21-.69,1.2-8.48,1.81-10.21.13-.46.19-.91.1-.97-.17-.11-1.38,4.57-1.54,5.99-.04.52-.2.84-.36.8s-.22-.03-.04.15c.27.24,0,1.9-.3,1.81-.08-.06-.14.03-.03.22.11.2.12,1.36-.06,2.71-.34,2.77-.22,3.4.16,1.21.15-1.12.25-1.36.29-.79.01.44.29-.79.58-2.67.8-4.54,1.36-7.27,2.33-9.8.58-1.5.6-1.8.22-1.14Zm-3.45,19.07c-.11-.2-.17-.11-.11.17.04.21.14.34.2.25s.02-.29-.08-.42Zm.4-4.31c-.04-.21-.1-.13-.18.18-.1.24-.1.6-.06.82s.11.2.2-.11c.09-.31.09-.67.05-.89Zm1.96-13.6c.07-.01.24-.27.38-.66s.17-.62.06-.45c-.25.2-.65,1.15-.44,1.11Zm6.54,7.35c.08.42.18.55.22.39.04-.15-.03-.51-.14-.7s-.15-.04-.09.31Zm.44,12.76c.01-4.82-.12-11.15-.29-11.63-.04-.21-.1.24-.08,1.11,0,.8-.02,3.29.03,5.4-.03,7.74.25,12.58.73,14.68.15.77.14.7.09-.31.02-.66-.08-2.32-.22-3.75-.12-1.36-.23-3.83-.27-5.5Zm1.07,5.12c-.02-1.6-.07-4.88-.08-10.57-.06-4.08-.3-9.8-.45-10.57-.07-.35-.12.53-.07,1.91,0,1.46.05,5.9.04,9.99.06,4.08.06,7.8.07,8.24.12,2.1.72,6.36,1.22,8.16.54,2.01.52,1.94-.05-1.74-.33-2.05-.59-4.56-.69-5.42Zm.79-9.06q-.1-.13-.11.17c.06.28.15.41.2.25.06-.08.03-.22-.08-.42Zm.16,3.84c-.06-1.45-.1-2.75-.19-2.88-.12-.27-.07,7.53.08,8.31.16.84.22.4.13-1.19-.02-.87-.03-2.77-.02-4.23Zm0,6.42c-.12-.27-.15-.04-.07.38.08.42.19.62.22.4-.04-.21-.11-.56-.15-.77Zm2.14,1.26c-.02-.87,0-3.79,0-6.35,0-4.53-.13-7.06-.26-6.59-.13.46-.12,9.88.01,12.85.1,1.66.22,3.39.33,3.95.16.84.22.76.1-.6-.02-.87-.17-2.38-.19-3.25Zm2.54,8.56c-.07.01-.17.25-.26.56-.1.24-.13.46-.06.45s.17-.25.27-.49c.09-.31.12-.53.05-.52Zm.66-.35c-.07.01-.24.27-.26.56-.1.24-.13.46-.06.45s.17-.25.27-.49c.09-.31.04-.52.04-.52Zm.25-1.36c-.06.08-.16.32-.14.39.07.35.27.24.33-.21.04-.15-.05-.28-.18-.18Zm.87-3.82c-.24.27-.31.28-.49.1-.11-.2-.08-.06.03.14.12.27.18.91.05,1.38-.12.53-.17.98-.16,1.05.03.14.17-.25.66-2.25.1-.6.09-.67-.08-.42Zm.16-1.42c-.16.32-.27.49-.31.28-.03-.14-.11-.2-.17-.11-.07.01.05.28.17.48.21.33.28.31.39-.22.16-.32.23-.7.2-.84s-.21.04-.28.42Zm.36-1.9c-.21.41-.28.42-.33.21-.03-.14-.11-.2-.18-.18-.06.08.07.35.21.69s.22.4.25.17c.03-.22.1-.6.2-.84q.12-.53-.15-.04Zm.07-.75c-.28-.31-.59-.03-.51.39.03.14.1.13.13-.1.04-.16.17-.25.32-.21.17.11.22.03.06-.08Zm-.02-.87q-.28-.31-.35.07c-.03.22-.02.29.11.2.13-.1.21-.04.24.1s.11.2.17.11.02-.29-.17-.48Zm.42-2.71q-.25-.54-.38.29c-.16.69-.14.76.12.27.16-.32.21-.41.27-.13.08.42-.1.97-.4.95-.14.03-.18.18-.23.34-.03.22.04.21.21-.04.16-.32.17-.25.2.25-.03.59.03.51.23-.34.21-.77.19-1.28-.02-1.6Zm.33-1.31c-.16.32-.27.49-.31.28-.03-.14-.11-.2-.17-.11-.18.18.18.55.46.49.14-.03.2-.11.17-.25-.01-.07,0-.37.03-.59.02-.3-.11-.2-.18.18Zm.94-5.29c-.06.08-.21.04-.31-.09-.1-.13-.23.34-.37,1.09-.21.77-.22,1.14-.06.82.23-.34.28-.42.33-.21.1.49-.16,1.05-.39,1.02-.14.03-.18.18-.16.32-.03.22.04.21.07-.01-.03-.14.1-.24.25-.2.16.04.31-.28.43-.81.17-.98.18-1.35-.08-.79-.14.39-.28.05-.18-.55.09-.31.16-.32.33-.21.11.2.24.1.27-.12.03-.23,0-.37-.12-.27Zm-.46,3.67c-.03-.14-.15-.04-.2.11-.1.24-.19.55-.17.62.03.14.15.04.27-.12.03-.22.13-.46.1-.6Zm.6-4.42c-.11.17-.27.12-.3-.02-.04-.21-.11-.2-.17-.11-.13.1.18.55.39.51,0,0,.13-.1.17-.25q.03-.22-.1-.13Zm.83-4.39c-.25-.17-.31-.09-.44.38-.09.31-.07.74.04.94.2.25.14.34-.03.22-.15-.04-.2.11-.07.38.14.34.15.41-.02.29-.18-.18-.37,0-.54.62-.27,1.22-.16,1.42.21.33.17-.62.23-.7.23-.34,0,.37.03.51.15.41.11-.17.23-.34.2-.48-.04-.21.13-.83.3-1.45.27-.86.29-1.15-.03-1.31Zm.01.44c.04.21-.06.45-.12.53-.13.1-.27.12-.28.05-.03-.14.07-.38.17-.62.09-.31.16-.32.22.03Zm-.09-1.59c-.13.1-.16.32-.14.39.07.35.19.25.25-.2.03-.22.02-.29-.11-.2Zm.43-.81c.04-.15-.05-.28-.18-.18-.06.08-.16.32-.14.39.07.35.27.24.32-.21Zm.38.07c-.07.01-.23.34-.31.64-.07.38-.1.6-.03.59,0,0,.17-.25.31-.64.16-.32.17-.62.03-.59Zm.94-2.67c-.24.27-.44.38-.54.25-.03-.14-.27.12-.4.59-.14.39-.16.69-.03.59.24-.27.28-.05.12.63-.29.79.1.13.7-1.3.29-.79.37-1.09.14-.76Zm-.38.66c.03.14-.09.31-.14.39-.13.1-.27.13-.3-.01s.09-.31.21-.41c.06-.08.2-.11.22.03Zm1.72,25c-.11-.2-.15-.04-.09.31s.18.55.22.39c.03-.22-.02-.51-.14-.7Zm2.61-12.85c.45-6.73.58-11.65.35-11.75-.01-.07-.15.76-.18,1.71-.02,1.03-.15,4.12-.35,6.86-.86,13.97-.86,16.23-.21,20.34.23,1.56.38,2.34.36,1.83-.03-.51-.23-2.29-.33-3.95-.23-3.46-.18-5.81.36-15.04Zm.86,2.9c.57-9.09.67-12.32.51-14.26-.14-1.87-.33-1.69-.31.28.02.87-.24,5.89-.53,11.2-.71,11.75-.7,14.08.19,18.65.53,2.74.86,4.07,1.07,4.03.07-.01-.23-1.56-.59-3.39-.88-4.5-.92-6.98-.36-16.5Zm1,2.51c.38-7.08.44-9.36.28-9.47s-.92,14.42-.81,17.24c0,1.46.11,3.19.29,3.74.14.7.16.84.14.34-.01-.44-.02-1.97-.08-3.42,0-1.53.07-5.27.19-8.43Zm1.86,9.93c-.17.25.16,4.94.44,6.41.14.7.26.97.25.54-.1-.49-.2-1.79-.29-3.01s-.22-2.66-.18-3.18c-.02-.51-.09-.86-.22-.76Zm.43-9.79c.24-7.42.31-10.43.14-10.54,0,0-.15,1.49-.23,3.33-.3,9.33-.41,14.83-.35,15.84.09,1.22.17.48.44-8.63Zm12.75,5.48c.01.07.13-.1.28-.42.14-.39.22-.77.19-.91-.01-.07-.13.1-.28.42-.14.39-.21.77-.19.91Zm.66-1.88c.11-.17.14-.39.06-.45s-.2.11-.23.34q-.07.38.17.11Zm-.13,1.56q0,.37.17.11c.11-.17.14-.39.06-.45-.08-.06-.13.1-.23.34Zm.12-7.25c-.03-.14.09-.31.14-.39.13-.1.21-.04.18.18-.06.45-.26.56-.33.21Zm.21,5.95c-.06.08-.17.25-.14.39.07.35.2.25.33-.21.03-.22-.05-.28-.18-.18Zm.06-1.18c.11-.17.21-.04.14.34q-.03.59.22.03c.17-.25.26-.56.23-.7-.01-.07-.08-.06-.21.04-.06.08-.21.04-.32-.16-.1-.13-.15-.04-.18.18-.09.31,0,.37.12.27Zm.35-1.6c.16-.32.24-.27.21.32q.04.58.24-.27c.17-.62.26-1.29.35-1.6,0-.37-.03-.51-.31-.45s-.32.21-.19.55c.29.38.09,1.22-.2,1.21-.16-.04-.27.12-.23.34-.04.15.03.14.13-.1Z"/>
      <path class="cls-1" d="m97.12,85.98c-5.48-1.13-8.83-4.86-9.67-11.04-.45-3.05-.41-5.47,0-8.62.63-5.01,1.83-8.24,3.91-10.69,1.3-1.57,2.39-2.36,3.82-2.86,1.03-.35,1.32-.33,3.27.31,2.79.84,3.17,1.28,3.7,4.03.61,3.53-.27,8.74-2.05,11.64-1.18,1.83-2.43,2.88-3.91,3.17-1.28.18-1.29.11-.86,3.82.32,3.52,1.19,6.12,2.53,7.76.4.58.63.61,1.33.47,1.9-.37,4.2-2.79,5.92-6.33.94-1.94,2.82-6.9,3.71-9.85.8-2.64.78-1.61-.04,1.32-.37,1.46-.69,2.83-.59,2.96.11.2.05.28-.11.17-.08-.06-.27.13-.31.28-.01.29,0,.37.31.09.25-.2.41-.52.37-.73-.11-.2.26-1.66.64-3.12.43-1.54.82-2.57.91-2.44.12.63-1.63,8.5-2.38,10.68-.92,2.81-1.43,3.93-2.5,5.52-1.47,2.18-2.49,2.97-4.36,3.48-1.46.36-1.84.29-3.65-.02Zm-6.75-10.3c-.13-1.43-.22-3.75-.22-5.29,0-1.46.02-2.92.02-3.29l.03-.59-.1.6c-.43,1.91-.44,5.27.05,8.17l.5,2.97-.28-2.57Zm.63-3.92c-.02-1.97.17-4.78.66-7.5.36-2.26.24-2.89-.21-1.06-1.12,5.11-1.2,11.48-.07,14.69.46,1.22.44,1.15.05-1.62-.23-1.56-.4-3.57-.44-4.51Zm.81-.74c-.19.55.03,3.94.38,5.33.15.77.15.41.06-1.18-.08-1.15-.17-2.74-.21-3.32-.02-.87-.06-1.08-.23-.83Zm1.46-9.77c.21-.77.32-1.38.25-1.36-.49.1-2.03,9.08-1.61,9.37.17.11.2.25.59-3.33.24-1.8.63-3.92.77-4.68Zm-.52,7.47c.09-.31.08-.74.03-.96-.04-.21-.1-.13-.18.18-.03.22-.02.66.04.94q.07.35.11-.17Zm.28-2.32c-.01-.07-.15-.04-.18.18-.1.24-.13.46-.1.6s.08.06.2-.11c.03-.23.12-.53.09-.67Zm.92,6.25c0,.37.17,2.01.42,3.64l.5,2.97-.37-2.63c-.13-1.43-.31-3.08-.34-3.66-.04-.94-.12-1-.21-.32Zm1.41-3.63c.2.25,1.54-1.47,2.21-2.91.37-.73.83-2.13,1.04-3.27.5-2.29.5-6.08.08-6.37-.43-.35-1.34,1.36-2.06,4.05-.67,2.54-1.55,8.19-1.27,8.5Zm4.24-4.11c-.13.1-.23.34-.21.41.07.35.27.24.32-.21.03-.22-.05-.28-.11-.2Zm.76-.95c.03.14.04.21.11.2.07-.01.13-.1.17-.25.11-.17.03-.23-.11-.2s-.2.11-.17.25Zm.14-2.66c.16-.32.17-.25.31.09.05.28.14.34.17.11.04-.16-.08-.42-.24-.47-.17-.11-.18-.55-.13-1.07.12-.53.12-1.26.05-1.62-.15-.41-.18-.18-.22.77-.1,2.5-.07,2.64.06,2.18Zm.23,1.93c.04-.16.07-.38.03-.59-.1-.13-.22-.03-.23.34s.01.44.2.25Zm.21-3.04c-.04.52-.03.59.14.34.1-.24.1-.6.06-.81-.12-.63-.22-.39-.2.48Zm.2-1.21c.06-.08.03-.22-.08-.42q-.1-.13-.11.17c.05.28.15.41.2.25Zm5.58,17.83c.21-.04.34-.14.34-.14-.04-.21-.55-.19-.59-.03-.06.08.04.21.25.17Zm.09-.67c.28.31.27.24.58-.41q.24-.63-.1-.49c-.21.04-.31.28-.27.49.12.27.07.35-.17.25-.15-.04-.22-.03-.04.15Zm.71-1.6l.2.25c.07-.01.11-.17.16-.32.03-.22-.07-.35-.28-.31-.14.03-.18.18-.07.38Z"/>
      <path class="cls-1" d="m130.89,64.75c-1.19,4.76-2.92,9.4-5.46,14.71-1.89,3.8-5.34,9.36-6.42,10.15-1.09.79-1.92,1.03-2.86.7-.46-.13-1.39-.39-2.16-.6-1.7-.47-3.38-1.97-4.06-3.59-.9-2.01-.97-5.73-.37-11.68.44-4.1.32-5.1-.41-6.64-.46-.86-.84-1.3-1.55-1.6-.49-.27-1.51-1.02-2.23-1.68-2.95-2.79-3.64-7.47-1.98-13.56,1.12-4.01,2.93-7.07,5.05-8.58,1.34-.99,2.41-1.12,3.49-.46.42.28,1.05.53,1.51.66,1.25.42,1.81,1.04,2.15,2.79.5,2.97-.33,8.09-2.6,15.91l-1.12,3.65,1.75,1.12c2.18,1.47,2.64,2.33,3.26,5.5.46,2.39.38,4.23-.25,8.88-.67,4.44-.69,7.36-.05,7.24.49-.1,2.8-2.51,3.76-3.94,2.86-4.06,5.22-8.83,8.45-16.61,1.08-2.69,2.05-4.85,2.12-4.87s.04.21-.06.45c-.09.31-.1.6-.02.66.08.06.24-.27.38-.66.46-1.4.24-.27-.33,2.04Zm-25.74-9.97c.18-1.35.42-2.71.51-3.02.07-.38.06-.45-.05-.28-.28.42-.91,3.97-.86,4.99.01.44.16-.32.4-1.68Zm.98-.99c.18-1.35.61-3.26.92-4.27.31-1.01.46-1.77.28-1.59-.11.17-.57,1.57-1,3.12-.82,2.93-1.13,5.84-.87,7.18.19.62.18.55.24-.63,0-.8.24-2.53.43-3.81Zm.84.2c.35-2.33,1.18-5.19,1.84-6.71.75-1.75.34-1.24-.48.53-.83,1.77-1.46,4.15-1.74,6.47-.34,2.77-.1,2.5.38-.29Zm1.47,1.54c.22-1.14.25-2.09.25-2.09-.17-.11-.52,2.58-.57,3.47,0,.37.17-.25.32-1.38Zm.69,3.15c.02,1.6.32,3.52.53,3.47.07-.01.24-.63.4-1.32,2.09-8.8,2.54-11.37,2.46-13.25-.03-.51-.09-1.22-.09-1.59-.03-.5-.08-.42-.71.5-1.38,2.31-2.72,8.56-2.6,12.19Zm1.72,4.7c.03-.22-.05-.28-.18-.18-.13.1-.16.32-.14.39.07.35.2.25.32-.21Zm.31.45c.17-.25.24-.63.23-.7-.05-.28-.18-.18-.33.57q-.17.62.1.13Zm.79-3.44c-.23.34-.28.42-.34.14-.14-.34-.7,1.3-.63,1.66.03.14.2-.11.33-.57.12-.53.29-.79.4-.59.1.13.21-.04.28-.42q.16-.69-.04-.21Zm-.03,20.16c.11-2.07.35-4.59.42-5.7.15-1.12.13-2.36.06-2.71-.14-.7-.21-.69-.18.18-.03.59-.15,2.22-.29,3.78-.37,3.36-.58,7.56-.45,8.19.19.62.22.39.44-3.74Zm.05-21.55c-.05-.28-.1-.13-.33.57q-.1.6.1.13c.17-.25.26-.56.23-.7Zm.9,19.68c.08-1.11.31-2.91.39-4.02.15-1.12.12-2.36.03-2.85l-.16-.84-.1.97c.03.51-.17,2.15-.32,3.64-.45,4.47-.59,8.22-.37,9.35.18.91.21.69.28-1.59.02-1.39.12-3.53.26-4.65Zm.09-24.7c-.82,3.67-.76,3.58-.41,3.51.21-.04.42-.45.57-.84.27-.86.05-.88-.28.05-.2.84-.35.43-.17-.48.09-.31.26-.56.33-.58.08.06.27-.12.44-.38q.21-.41-.08-.06c-.48.53-.51.39-.05-1.74.23-1.07.46-1.77.64-1.58.1.13.22.03.24-.27.01-.29.02-.66-.15-.77-.08-.06-.11-.56-.07-1.08.09-.67.05-.88-.21-1.05-.25-.17-.32-.16-.13.1.28.31.1,2.03-.67,5.17Zm-.27,3.85c-.08-.06-.2.11-.23.34q-.07.38.1.13c.18-.18.21-.41.13-.46Zm1.22,21.3c.23-2.6.38-4.82.28-4.95-.22-.4-1.11,9.71-.94,10.55.1.49.15.04.66-5.61Zm.06-26.73c-.01-.07-.08-.06-.18.18-.03.22-.13.46-.1.6.03.14.15.04.18-.18.11-.17.13-.46.1-.61Zm-.15-1.14c-.05-.28,0-.37.11-.17.1.13.14.34.08.42-.13.1-.15-.04-.19-.25Zm.12-3.16c.05.28.15.41.12.27.03-.22-.01-.44-.11-.56-.04-.21-.08-.06-.02.29Zm1.3,36.4q-.07-.35-.18.18c-.02.29,0,.8.05,1.01q.07.35.11-.17c.09-.31.06-.81.02-1.03Zm.33-3.57c.14.34.7-5.39.67-6.34.06-.45-.01-.8-.07-.72-.11.17-.64,6.84-.6,7.05Zm.59-11.21c-.03-.14.02-.29.14-.39s.2-.11.22.03-.02.29-.14.39c-.11.17-.2.11-.23-.03Zm6.9,11.44c-.17.25-.28.42-.27.49.04.21.16.04.37-.36q.2-.48-.1-.13Zm1.75-2.24c-.18.18-.38.29-.46.24-.07.01-.31.28-.52.69-.34.5-.33.58-.03.23.17-.25.42-.45.51-.39.08.06.25-.2.48-.53s.21-.41.03-.22Zm-.51,1.12c-.07.01-.24.27-.48.53-.16.32-.26.56-.19.55.07-.01.24-.27.47-.6.17-.25.27-.49.2-.48Zm.97-2.16c-.11.17-.31.28-.39.22-.07.01-.27.12-.35.43q-.21.41.01.07c.18-.18.38-.29.46-.24.08.06.27-.12.37-.36q.21-.41-.1-.13Zm2.26-5.26c-.21.04-.25.19-.14.39.11.2.12.27-.1.24-.39-.14-1.3,1.93-1.08,2.33.11.2.14.34.04.21-.32-.16-.79.45-.57.84.1.13.12.27-.02.29-.36,0-.56.11-.38.29.35.3.52.04,1.49-2.11q1.11-2.55.76-2.48Zm-.37,1.09c-.1.24-.36.8-.51,1.12-.27.49-.34.5-.25.2.09-.31.29-.79.5-1.19.28-.42.34-.5.27-.12Zm.67-1.81c-.21.04-.41.15-.46.24-.06.08.03.14.24.1.2-.11.39-.22.45-.31.06-.08-.03-.14-.22-.03Zm1.8-5.39c-.21.04-.8,1.91-.73,2.26.11.2.01.44-.14.39-.14.03-.25.2-.14.39.12.27.08.42-.09.31-.31-.09-.59.7-.37,1.09.11.2.05.28-.1.24-.16-.04-.29-.02-.34.14-.06.08.1.13.24.1.2-.11.45-.31.5-.46.1-.24.04-.52-.05-.65-.11-.2-.12-.27.03-.22.38.07.94-1.2.77-1.68-.04-.21-.01-.44.14-.39.14-.03.25-.2.27-.49-.05-.28-.05-.65,0-.8.11-.17.1-.24.03-.22Zm.96-2.96c-.55.55-.84,2.43-.35,2.33.07-.01.06-.08-.03-.14s.04-.52.23-1.07c.4-.95.46-1.4.15-1.12Z"/>
      <path class="cls-1" d="m139.12,77.82c-5.48-1.13-8.83-4.86-9.67-11.04-.45-3.05-.41-5.47,0-8.62.63-5.01,1.83-8.24,3.91-10.69,1.3-1.57,2.39-2.36,3.83-2.86,1.03-.35,1.32-.33,3.27.31,2.79.84,3.17,1.28,3.7,4.03.61,3.53-.27,8.74-2.05,11.64-1.18,1.84-2.43,2.88-3.91,3.17-1.28.18-1.29.11-.87,3.82.32,3.52,1.19,6.12,2.53,7.76.4.58.63.61,1.33.47,1.9-.37,4.21-2.79,5.92-6.33.94-1.94,2.82-6.9,3.71-9.85.8-2.64.78-1.61-.04,1.32-.37,1.46-.69,2.84-.59,2.96.11.2.05.28-.11.17-.08-.06-.27.12-.31.28-.02.3,0,.37.31.09.25-.2.41-.52.37-.73-.11-.2.26-1.66.63-3.12.43-1.54.81-2.57.91-2.44.12.63-1.64,8.49-2.38,10.68-.92,2.81-1.43,3.93-2.5,5.52-1.47,2.19-2.49,2.97-4.36,3.48-1.46.36-1.84.29-3.66-.02Zm-6.75-10.3c-.13-1.43-.22-3.75-.22-5.29,0-1.46.02-2.92.02-3.29l.03-.59-.1.6c-.43,1.91-.44,5.27.05,8.17l.5,2.97-.28-2.57Zm.63-3.92c-.02-1.97.17-4.78.66-7.5.36-2.26.24-2.89-.21-1.06-1.12,5.11-1.2,11.48-.07,14.69.46,1.23.44,1.16.05-1.62-.23-1.56-.4-3.57-.44-4.51Zm.8-.74c-.18.55.03,3.94.38,5.33.15.77.15.41.06-1.18-.08-1.15-.17-2.74-.21-3.32-.02-.87-.07-1.08-.24-.83Zm1.46-9.78c.21-.77.32-1.38.25-1.36-.49.1-2.03,9.08-1.61,9.37.17.11.19.25.59-3.33.23-1.8.63-3.92.77-4.68Zm-.52,7.48c.08-.31.07-.75.03-.96s-.1-.13-.18.18c-.03.23-.02.66.04.94q.07.35.11-.17Zm.28-2.32c-.01-.07-.15-.04-.18.18-.1.24-.13.46-.1.6s.08.06.2-.11c.03-.22.12-.53.09-.67Zm.92,6.25c0,.37.17,2.01.42,3.64l.5,2.97-.37-2.63c-.13-1.43-.31-3.08-.35-3.66-.04-.94-.12-1-.21-.32Zm1.41-3.63c.2.25,1.54-1.47,2.21-2.91.37-.73.83-2.13,1.04-3.27.5-2.29.5-6.08.08-6.37-.43-.35-1.34,1.36-2.06,4.05-.67,2.54-1.55,8.19-1.27,8.5Zm4.24-4.11c-.13.1-.23.34-.21.41.07.35.27.24.32-.21.03-.23-.05-.28-.11-.2Zm.76-.95c.03.14.04.21.11.2.07-.01.13-.1.17-.25.11-.17.03-.22-.11-.2-.14.03-.2.11-.17.25Zm.14-2.66c.16-.32.17-.25.31.09.05.28.14.34.17.11.04-.16-.08-.42-.24-.46-.17-.11-.18-.55-.13-1.07.12-.53.12-1.26.05-1.62-.15-.41-.18-.18-.21.77-.1,2.5-.07,2.64.06,2.18Zm.23,1.93c.04-.16.07-.38.03-.59-.1-.13-.22-.03-.23.34,0,.36.01.43.2.25Zm.21-3.04c-.04.52-.03.59.14.34.1-.24.1-.6.06-.82-.12-.63-.22-.39-.2.48Zm.2-1.21c.06-.08.03-.22-.08-.42q-.1-.13-.11.17c.05.28.15.41.2.25Zm5.58,17.83c.21-.04.34-.14.34-.14-.04-.21-.55-.19-.59-.03-.06.08.04.21.25.17Zm.09-.67c.28.31.27.24.58-.4q.24-.63-.1-.49c-.21.04-.31.28-.27.49.12.27.07.35-.17.25-.16-.04-.23-.03-.04.15Zm.71-1.6c.1.13.2.25.2.25.07-.01.11-.17.16-.32.03-.23-.07-.35-.28-.31-.14.03-.18.18-.07.38Z"/>
      <path class="cls-1" d="m162.06,73.37c-.69-.16-1.75-.39-2.37-.56-1.54-.43-4.18-2.33-5.45-3.98-1.49-2.05-2.16-3.6-2.97-7.02-.85-3.63-.91-6.18-.22-9.38,1.65-8.06,6.45-13.01,10.47-10.72.42.28,1.22.64,1.68.77,2.7.72,4.02,3.02,3.76,6.57-.03.96-.25,1.73-.59,2.23-.51.76-.57.84-.93.47-.25-.17-.41-.21-.46-.13-.18.18-.46-.49-1.33-3.46-.41-1.38-.87-2.61-1.04-2.72-.69-.52-2.64,4.09-3.35,7.95-1.19,7.02-.41,13.66,1.97,16.92.78,1.02.79,1.09,1.92.87,3.17-.62,5.78-3.31,9.27-9.39,3.86-6.81,5.18-9.04,5.46-9.09.21-.04.31.09.2.25-.04.16.04.21.37,0,.73-.36.69-.21-1.09,4.15-3.32,8.09-6.93,13.54-10.35,15.52-1.3.84-3.58,1.13-4.97.75Zm-10.55-16.71c-.11-.2-.1-.13-.11.17.04.21.14.34.2.25s.02-.29-.08-.42Zm2.44-3.25c.13-.46.12-.9.03-.96-.17-.11-.43,1.54-.65,3.78-.16,1.78.04,5.47.25,5.43.07-.01.12-.9.07-1.91-.11-2.09.07-4.91.3-6.34Zm.64,4.4c.01-2.56.39-5.11,1.02-7.5.3-1.08.39-1.75.23-1.43-.53,1.05-1.53,4.9-1.71,6.98-.16,1.78-.07,2.64.42,5.54l.59,3.39-.35-2.56c-.13-1.43-.23-3.46-.2-4.41Zm1.54-4.46c.39-2.12,1.08-4.59,1.58-5.78q.23-.7-.25.19c-1.12,1.75-2.07,6.61-2.17,10.28-.04,2.78.15,2.67.34-.14.08-1.48.34-3.5.5-4.55Zm.55-.54c-.14.39-.21.77-.19.91.01.07.13-.1.28-.42.07-.38.15-.76.13-.83-.03-.14-.14.03-.23.34Zm1.06,6.95c0-1.46.07-3.01.15-3.39.17-.98.08-1.48-.09-.86-.24.63-.44,5.27-.2,6.1.1.49.16-.32.15-1.85Zm7.67-9.38c.06-.08.02-.29-.08-.42-.11-.2-.17-.11-.11.17.04.21.14.34.2.25Zm.05,1.01c.05.28.18.18.25-.2.1-.24.02-.29-.11-.2-.13.1-.17.25-.14.39Zm8.22,10.38c.07-.01.18-.18.35-.43.21-.41.2-.48-.08-.06-.37.36-.41.52-.27.49Zm.56-.11c-.37.36-.4.59-.26.56.07-.01.24-.27.34-.5q.21-.41-.08-.06Zm.44-.74c.07-.01.34-.5.61-1,.26-.56.34-.87.16-.69-.11.17-.37.36-.5.46-.14.03-.18.18-.1.24.03.14.01.44-.1.6-.1.24-.14.39-.07.38Zm.97-2.89c.54-.62.65-.42.22.39-.24.27-.21.41-.09.31.11-.17.44-.74.75-1.39.6-1.43.04-1.32-.77.15-.31.64-.36.8-.12.53Zm.54-.98c.1-.24.27-.49.27-.49.07-.01.11.2.01.44-.09.31-.26.56-.26.56-.07.01-.11-.2-.03-.51Zm.94-1.2c.06-.08.08-.31.12-.53-.04-.21-.13-.27-.18-.18-.06.08-.09.31-.05.52-.03.22.05.28.11.2Zm.81-1.47c.18-.18.21-.41.2-.48-.32-.16-.52-.04-.44.38-.01.29.07.35.24.1Z"/>
      <path class="cls-1" d="m187.17,68.49c-5.48-1.13-8.83-4.86-9.67-11.05-.45-3.05-.41-5.47,0-8.62.63-5.01,1.83-8.24,3.91-10.69,1.3-1.57,2.39-2.36,3.82-2.86,1.03-.35,1.32-.33,3.27.31,2.79.84,3.17,1.28,3.7,4.03.61,3.53-.27,8.74-2.05,11.64-1.18,1.84-2.43,2.88-3.91,3.17-1.28.17-1.29.11-.86,3.82.32,3.52,1.19,6.12,2.53,7.76.4.58.63.61,1.33.47,1.9-.37,4.21-2.79,5.92-6.33.94-1.94,2.82-6.9,3.71-9.85.8-2.64.78-1.61-.04,1.32-.37,1.46-.69,2.83-.59,2.96.11.2.05.28-.11.17-.08-.06-.27.13-.31.28-.01.29,0,.37.31.09.25-.2.41-.52.37-.73-.11-.2.26-1.66.63-3.12.43-1.54.82-2.57.91-2.44.12.63-1.64,8.5-2.38,10.68-.92,2.81-1.43,3.93-2.5,5.52-1.47,2.19-2.49,2.97-4.36,3.48-1.46.36-1.84.29-3.66-.02Zm-6.75-10.3c-.13-1.43-.22-3.75-.22-5.29,0-1.46.02-2.92.02-3.29l.03-.59-.1.6c-.43,1.91-.44,5.27.05,8.17l.5,2.97-.28-2.57Zm.62-3.92c-.02-1.97.17-4.78.66-7.5.36-2.26.24-2.89-.21-1.06-1.12,5.11-1.2,11.48-.07,14.69.46,1.22.44,1.15.05-1.62-.23-1.56-.4-3.57-.44-4.51Zm.81-.74c-.19.55.03,3.94.38,5.33.15.77.15.41.06-1.18-.08-1.15-.17-2.74-.21-3.32-.02-.87-.07-1.08-.24-.83Zm1.46-9.77c.21-.77.32-1.38.25-1.36-.49.1-2.03,9.08-1.61,9.37.17.11.19.25.59-3.33.23-1.8.63-3.92.77-4.68Zm-.52,7.47c.09-.31.07-.74.03-.96-.04-.21-.1-.13-.18.18-.03.23-.02.66.04.94q.07.35.11-.17Zm.28-2.32c-.01-.07-.15-.04-.18.18-.1.24-.13.46-.1.6s.08.06.2-.11c.03-.23.12-.53.09-.67Zm.92,6.25c0,.37.17,2.01.42,3.64l.5,2.97-.37-2.63c-.13-1.43-.31-3.08-.34-3.66-.04-.94-.12-1-.21-.32Zm1.41-3.63c.2.25,1.54-1.47,2.21-2.91.37-.73.83-2.13,1.04-3.27.5-2.29.5-6.08.08-6.37-.43-.35-1.34,1.36-2.06,4.05-.67,2.54-1.55,8.19-1.27,8.5Zm4.24-4.11c-.13.1-.23.34-.21.41.07.35.27.24.32-.21.03-.23-.05-.28-.11-.2Zm.76-.95c.03.14.04.21.11.2s.13-.1.17-.25c.11-.17.03-.22-.11-.2-.14.03-.2.11-.17.25Zm.14-2.66c.16-.32.17-.25.31.08.05.28.14.34.17.11.04-.16-.08-.42-.24-.47-.17-.11-.18-.55-.13-1.07.12-.53.12-1.26.05-1.62-.15-.41-.18-.18-.21.77-.1,2.5-.07,2.64.06,2.18Zm.23,1.93c.04-.16.07-.38.03-.59-.1-.13-.22-.03-.23.34,0,.37.01.44.2.25Zm.21-3.04c-.04.52-.03.59.14.34.1-.24.1-.6.06-.82-.12-.63-.22-.39-.2.48Zm.2-1.21c.06-.08.03-.22-.08-.42q-.1-.13-.11.17c.05.28.15.41.2.25Zm5.58,17.83c.21-.04.34-.14.34-.14-.04-.21-.55-.19-.59-.03-.06.08.04.21.25.17Zm.09-.67c.28.31.27.24.58-.41q.24-.63-.1-.49c-.21.04-.31.28-.27.49.12.27.07.35-.17.25-.15-.04-.23-.03-.04.15Zm.71-1.6l.2.25c.07-.01.11-.17.16-.32.03-.22-.07-.35-.28-.31-.14.03-.18.18-.07.38Z"/>
      <path class="cls-1" d="m220.68,45.55c-.7.14-3.14,1.85-5.19,3.71-1.79,1.66-4.65,4.63-4.61,4.84.01.07.77.58,1.61,1.15.91.55,2.06,1.57,2.56,2.28,1.42,1.69,2.58,4.25,2.74,5.82.23,3.83-2.29,7.38-6.05,8.33-.83.23-1.82.43-2.2.35-1.4-.09-4.2-.94-5.36-1.66-1.58-1.01-2.11-1.85-2.34-3.78-.27-2.14.56-5,2.28-8.18.7-1.3,1.36-2.38,1.5-2.41.63-.12-.17-.48-2.76-1.44-3.52-1.21-6.04-2.91-7.02-4.55-2.33-4.08-.46-11.74,3.72-15.03,2.53-2.02,5.12-2.6,7.27-1.63.63.24,1.42.53,1.88.66,2.03.7,3.21,1.86,2.93,3.08-.2.84-.85.9-2.09.12-1.06-.6-1.14-.58-1.94-.21-1.07.5-2.53,2.02-3.25,3.19-.74,1.46-1.6,4.91-1.6,6.81-.06,2.71.68,4.25,2.6,5.12q2.33,1.08,3.94-.4c1.99-1.77,5.89-4.65,7.72-5.74,1.63-.97,2.8-1.35,3.65-1.15.63.24.7.59,0,.73Zm-22.88-.15c.09-1.04.14-1.93.05-1.98-.17-.11-.58,2.67-.38,3.29.08.42.2-.11.33-1.3Zm.92,1.72c-.15-.77.17-3.61.56-5,.23-.7.26-1.29.26-1.29-.25-.17-1.17,3.37-1.28,4.7-.11,1.7,0,2.26.28,2.21.14-.03.23-.33.17-.62Zm1.86-6.57c-.6,1.43-1.03,3.34-1.12,5.11,0,1.83.16,1.58.35-.43.14-.76.36-2.26.68-3.27.62-2.46.67-2.54.09-1.41Zm1.25,4.58l-.2.84c-.06.45-.09,1.04-.04,1.32l.08.42.06-.45c.09-.31.12-.9.11-1.33v-.8Zm1.95,16.78c-.37.73-.68,2.91-.6,4.06.07.72.1.49.16-.69.1-.97.31-2.18.48-2.79.17-.62.13-.83-.04-.58Zm-.04,3.15c-.1-.13-.15-.04-.11.17.05.28.15.41.21.32.04-.15.02-.29-.1-.49Zm.09-1.04c-.04.15-.16.32-.14.39.07.35.27.24.32-.21.04-.16-.05-.28-.18-.18Zm.24-1c-.08-.06-.2.11-.23.34q0,.37.17.11c.11-.17.14-.39.06-.45Zm4.83-4.44l-.75-1.24-1.05,1.74c-.61.99-1.32,2.59-1.67,3.83-.5,1.92-.52,2.22-.19,3.91.55,2.81,1.4,3.45,3.3,2.35,1.37-.85,2.41-3.02,2.32-4.98-.05-1.38-1.02-4.11-1.97-5.6Zm4.34,6.17c.11-.17.07-.75-.12-1.36l-.29-1.11.12,1.36c.14.7.23,1.2.29,1.11Zm.73.37c.19-.55.16-1.42.03-2.12-.27-1.41-.46-.86-.33.94.05.65.13,1.43.05,1.74-.03.22.08.06.26-.56Zm.88.41c.16-.32.2-.84.13-1.19-.1-.49-.15-.41-.3.35-.15,1.12-.04,1.69.16.84Zm1.85-1.38c0,.37.11.56.15.41.03-.22-.02-.51-.14-.7-.11-.2-.08-.06-.02.29Z"/>
    </g>
    <path class="cls-1" d="m27.88,90.35c1.16,1.54,1.61,2.9,1.61,4.96s-.45,3.73-1.54,5.79c-2.38,4.63-7.21,8.69-12.36,10.43-2.06.64-5.15.77-6.89.19-1.67-.58-3.28-1.67-3.99-2.77-.39-.51-1.29-1.61-2-2.38-.71-.77-1.61-2.06-2-2.83-.58-1.22-.64-1.61-.71-3.35-.13-3.28.71-6.56,2.57-10.23,1.16-2.32,2.19-3.8,5.28-7.85,1.42-1.8,3.09-4.05,3.73-5.08,1.29-1.93,3.09-5.99,3.54-7.85.32-1.42.19-5.08-.19-5.41-.13-.19-.26-.39-.26-.52,0-.32,1.61-.52,2.19-.19.26.13.64.51.9.9.26.39.84.9,1.29,1.16.9.51,1.87,1.93,2.51,3.6.39,1.03.45,1.48.39,3.15-.13,2.38-.51,3.73-2.38,7.4-1.35,2.77-2.38,4.25-6.63,9.72-2.83,3.6-3.48,4.57-4.63,6.89-1.09,2.25-1.87,4.51-2.12,6.69-.26,1.48-.26,1.8,0,2,.45.26,3.86.19,5.41-.13,3.93-.84,8.56-4.12,11.01-7.72,1.29-1.93,1.87-3.54,1.87-4.96,0-1.87-1.09-3.86-2.51-4.7-.9-.52-1.03-.77-.32-1.09,1.09-.45,4.38,1.8,6.24,4.18Zm-23.69-.64c.58-1.09,1.54-2.64,2.06-3.35.51-.77.9-1.42.9-1.42-.06,0-.51.58-1.03,1.22-1.09,1.42-3.02,4.83-3.02,5.28,0,.13.45-.64,1.09-1.74Zm5.6-2.19c3.02-3.93,5.54-7.4,6.31-8.75,1.09-1.93,2.32-4.96,2.45-6.05.13-.77-.06-.51-.71,1.22-.45,1.16-1.29,3.03-1.87,4.18-1.29,2.25-2.45,3.93-5.6,7.98-1.29,1.54-2.77,3.54-3.28,4.31-1.09,1.74-2.77,5.28-2.77,5.86,0,.26.32-.26.71-1.09.97-2.19,2.77-5.15,4.76-7.66Zm6.24-11.91c-.71,1.35-1.74,3.22-2.38,4.18-.64.97-2.25,3.09-3.54,4.76-2.77,3.54-3.35,4.38-4.44,6.37-1.03,1.8-.84,1.67.64-.64.71-1.03,2-2.83,2.9-3.99,3.86-4.89,4.7-6.05,5.79-8.04.71-1.22,2.19-4.63,2.19-4.89,0-.06-.51.97-1.16,2.25Zm-9.4,18.21c1.54-2.96,2.45-4.31,5.15-7.72,1.61-2,2.32-3.02,2.25-3.02s-1.16,1.35-2.51,2.96c-2.9,3.73-4.38,5.86-5.28,7.85-1.03,2.32-.84,2.25.39-.06Zm.45-6.18c.06,0,.71-.77,1.42-1.67.71-.97,1.42-1.87,1.54-2.06.77-.9,3.15-4.05,3.28-4.38.45-.77-.58.58-3.41,4.25-1.61,2.12-2.9,3.86-2.83,3.86Zm11.52-33.34c.19.06.39.39.45.64.13.32.39.51.71.51.58,0,1.16.64,1.16,1.22,0,1.03-1.42,2.7-3.02,3.54-1.03.52-2.83,1.03-3.73,1.03-.64,0-2.64-.64-3.09-1.03-.13-.13-.45-.39-.71-.58l-.51-.39.51-.77c.39-.39.9-.84,1.35-.97,1.22-.39,2.7-1.16,4.25-2.19,1.35-.9,2.12-1.22,2.64-1.03Zm-5.79,23.17c.64-.77,2-3.48,2.57-5.15.58-1.61.64-1.67.45-1.67,0,0-.32.77-.71,1.67-.39.97-1.09,2.64-1.67,3.73-.58,1.03-.84,1.74-.64,1.42Zm4.76-.58c-.52,1.09-1.48,2.9-2.19,3.99s-1.22,2-1.22,2c.06,0,.58-.64,1.16-1.42,1.16-1.61,3.22-5.41,3.54-6.69.13-.45.26-1.03.32-1.22.13-.45-.45.77-1.61,3.35Zm1.48,1.8c0-.26-.13-.19-.26.13-.06.19-.06.26.06.19.13-.06.19-.19.19-.32Zm.64-1.42c.13-.19.19-.39.19-.52s-.06-.06-.19.06c-.13.19-.19.45-.19.58,0,.06.06.06.19-.13Zm5.79,20.34c.71-1.67.64-1.93-.06-.51-.45.84-1.16,2-1.61,2.7-.45.64-1.42,1.8-2.12,2.57-.77.9-.97,1.16-.52.77,1.61-1.29,3.6-3.86,4.31-5.54Zm1.54-1.8c.19-1.03.06-.77-.64,1.09-.58,1.48-1.29,2.7-3.35,5.53-.32.45-.13.32.52-.32,1.8-1.93,3.09-4.31,3.48-6.31Zm-3.15.77c0,.26.97-1.74,1.03-2.06,0-.19-.26.19-.52.77-.32.64-.51,1.22-.51,1.29Zm3.48.45c0-.19-.26.26-.58.9-.32.71-.9,1.8-1.22,2.38-.58,1.03-.58,1.09-.13.58.64-.77,2-3.41,1.93-3.86Z"/>
    <path class="cls-1" d="m211.63,21.74c-1.16-1.54-1.61-2.9-1.61-4.96s.45-3.73,1.54-5.79c2.38-4.63,7.21-8.69,12.36-10.43,2.06-.64,5.15-.77,6.89-.19,1.67.58,3.28,1.67,3.99,2.77.39.51,1.29,1.61,2,2.38.71.77,1.61,2.06,2,2.83.58,1.22.64,1.61.71,3.35.13,3.28-.71,6.56-2.58,10.23-1.16,2.32-2.19,3.8-5.28,7.85-1.42,1.8-3.09,4.05-3.73,5.08-1.29,1.93-3.09,5.99-3.54,7.85-.32,1.42-.19,5.08.19,5.41.13.19.26.39.26.52,0,.32-1.61.52-2.19.19-.26-.13-.64-.51-.9-.9-.26-.39-.84-.9-1.29-1.16-.9-.51-1.87-1.93-2.51-3.6-.39-1.03-.45-1.48-.39-3.15.13-2.38.51-3.73,2.38-7.4,1.35-2.77,2.38-4.25,6.63-9.72,2.83-3.6,3.47-4.57,4.63-6.89,1.09-2.25,1.87-4.51,2.12-6.69.26-1.48.26-1.8,0-2-.45-.26-3.86-.19-5.41.13-3.93.84-8.56,4.12-11.01,7.72-1.29,1.93-1.87,3.54-1.87,4.96,0,1.87,1.09,3.86,2.51,4.7.9.52,1.03.77.32,1.09-1.09.45-4.38-1.8-6.24-4.18Zm.51-6.69c0,.19.26-.26.58-.9.32-.71.9-1.8,1.22-2.38.58-1.03.58-1.09.13-.58-.64.77-2,3.41-1.93,3.86Zm.32,1.22c-.19,1.03-.06.77.64-1.09.58-1.48,1.29-2.7,3.35-5.53.32-.45.13-.32-.51.32-1.8,1.93-3.09,4.31-3.48,6.31Zm1.54-1.8c-.71,1.67-.64,1.93.06.51.45-.84,1.16-2,1.61-2.7.45-.64,1.42-1.8,2.12-2.57.77-.9.97-1.16.52-.77-1.61,1.29-3.6,3.86-4.31,5.54Zm1.61,1.03c0-.26-.97,1.74-1.03,2.06,0,.19.26-.19.51-.77.32-.64.52-1.22.52-1.29Zm5.28,42.29c-.19-.06-.39-.39-.45-.64-.13-.32-.39-.51-.71-.51-.58,0-1.16-.64-1.16-1.22,0-1.03,1.42-2.7,3.02-3.54,1.03-.52,2.83-1.03,3.73-1.03.64,0,2.64.64,3.09,1.03.13.13.45.39.71.58l.51.39-.51.77c-.39.39-.9.84-1.35.97-1.22.39-2.7,1.16-4.25,2.19-1.35.9-2.12,1.22-2.64,1.03Zm-1.09-22.98c-.13.19-.19.39-.19.52s.06.06.19-.06c.13-.19.19-.45.19-.58,0-.06-.06-.06-.19.13Zm2.12.39c.52-1.09,1.48-2.9,2.19-3.99.71-1.09,1.22-2,1.22-2-.06,0-.58.64-1.16,1.42-1.16,1.61-3.22,5.41-3.54,6.69-.13.45-.26,1.03-.32,1.22-.13.45.45-.77,1.61-3.35Zm-1.48-1.8c0,.26.13.19.26-.13.06-.19.06-.26-.06-.19-.13.06-.19.19-.19.32Zm9.27-8.82c-3.02,3.93-5.54,7.4-6.31,8.75-1.09,1.93-2.32,4.96-2.45,6.05-.13.77.06.51.71-1.22.45-1.16,1.29-3.03,1.87-4.18,1.29-2.25,2.45-3.93,5.6-7.98,1.29-1.54,2.77-3.54,3.28-4.31,1.09-1.74,2.77-5.28,2.77-5.86,0-.26-.32.26-.71,1.09-.96,2.19-2.77,5.15-4.76,7.66Zm-6.24,11.91c.71-1.35,1.74-3.22,2.38-4.18.64-.97,2.25-3.09,3.54-4.76,2.77-3.54,3.35-4.38,4.44-6.37,1.03-1.8.84-1.67-.64.64-.71,1.03-2,2.83-2.9,3.99-3.86,4.89-4.7,6.05-5.79,8.04-.71,1.22-2.19,4.63-2.19,4.89,0,.06.51-.97,1.16-2.25Zm3.22-1.87c-.64.77-2,3.48-2.57,5.15-.58,1.61-.64,1.67-.45,1.67,0,0,.32-.77.71-1.67.39-.97,1.09-2.64,1.67-3.73.58-1.03.84-1.74.64-1.42Zm6.18-16.35c-1.54,2.96-2.45,4.31-5.15,7.72-1.61,2-2.32,3.02-2.25,3.02s1.16-1.35,2.51-2.96c2.9-3.73,4.38-5.86,5.28-7.85,1.03-2.32.84-2.25-.39.06Zm-.45,6.18c-.06,0-.71.77-1.42,1.67-.71.97-1.42,1.87-1.54,2.06-.77.9-3.15,4.05-3.28,4.38-.45.77.58-.58,3.41-4.25,1.61-2.12,2.9-3.86,2.83-3.86Zm2.9-2.06c-.58,1.09-1.54,2.64-2.06,3.35-.51.77-.9,1.42-.9,1.42.06,0,.51-.58,1.03-1.22,1.09-1.42,3.03-4.83,3.03-5.28,0-.13-.45.64-1.09,1.74Z"/>
  </svg>
